{
  "accessors": [
    {
      "name": "13003_Auriga_Butterflyfish_1_0_positions",
      "componentType": 5126,
      "count": 30446,
      "min": [
        -13.363499641418457,
        -1.7598999738693237,
        -3.109999895095825
      ],
      "max": [
        11.130800247192383,
        1.906499981880188,
        9.501199722290039
      ],
      "type": "VEC3",
      "bufferView": 0,
      "byteOffset": 0
    },
    {
      "name": "13003_Auriga_Butterflyfish_1_0_normals",
      "componentType": 5126,
      "count": 30446,
      "min": [
        -0.9999927878379822,
        -1,
        -0.9999923706054688
      ],
      "max": [
        0.9998814463615417,
        0.9999999403953552,
        0.9999995827674866
      ],
      "type": "VEC3",
      "bufferView": 1,
      "byteOffset": 0
    },
    {
      "name": "13003_Auriga_Butterflyfish_1_0_texcoords",
      "componentType": 5126,
      "count": 30446,
      "min": [
        0.0020000000949949026,
        0.009999999776482582
      ],
      "max": [
        0.9961000084877014,
        0.9972000122070312
      ],
      "type": "VEC2",
      "bufferView": 2,
      "byteOffset": 0
    },
    {
      "name": "13003_Auriga_Butterflyfish_1_0_indices",
      "componentType": 5123,
      "count": 174525,
      "min": [
        0
      ],
      "max": [
        30445
      ],
      "type": "SCALAR",
      "bufferView": 3,
      "byteOffset": 0
    }
  ],
  "asset": {
    "generator": "obj2gltf",
    "version": "2.0"
  },
  "buffers": [
    {
      "name": "13003_Auriga_Butterflyfish_v1_L3",
      "byteLength": 1950644,
      "uri": "data:application/octet-stream;base64,"
    }
  ],
  "bufferViews": [
    {
      "name": "bufferView_0",
      "buffer": 0,
      "byteLength": 365352,
      "byteOffset": 0,
      "byteStride": 12,
      "target": 34962
    },
    {
      "name": "bufferView_1",
      "buffer": 0,
      "byteLength": 365352,
      "byteOffset": 365352,
      "byteStride": 12,
      "target": 34962
    },
    {
      "name": "bufferView_2",
      "buffer": 0,
      "byteLength": 243568,
      "byteOffset": 730704,
      "byteStride": 8,
      "target": 34962
    },
    {
      "name": "bufferView_3",
      "buffer": 0,
      "byteLength": 349052,
      "byteOffset": 974272,
      "target": 34963
    },
    {
      "buffer": 0,
      "byteOffset": 1323324,
      "byteLength": 627320
    }
  ],
  "images": [
    {
      "name": "13003_Auriga_Butterflyfish_diff",
      "mimeType": "image/jpeg",
      "bufferView": 4
    }
  ],
  "materials": [
    {
      "name": "13003_Auriga_Butterflyfish",
      "pbrMetallicRoughness": {
        "baseColorTexture": {
          "index": 0
        },
        "baseColorFactor": [
          1,
          1,
          1,
          1
        ],
        "metallicFactor": 0,
        "roughnessFactor": 0.97
      },
      "emissiveFactor": [
        0,
        0,
        0
      ],
      "alphaMode": "OPAQUE",
      "doubleSided": false
    }
  ],
  "meshes": [
    {
      "name": "13003_Auriga_Butterflyfish_1",
      "primitives": [
        {
          "attributes": {
            "POSITION": 0,
            "NORMAL": 1,
            "TEXCOORD_0": 2
          },
          "indices": 3,
          "material": 0,
          "mode": 4
        }
      ]
    }
  ],
  "nodes": [
    {
      "name": "13003_Auriga_Butterflyfish",
      "mesh": 0
    }
  ],
  "samplers": [
    {
      "magFilter": 9729,
      "minFilter": 9986,
      "wrapS": 10497,
      "wrapT": 10497
    }
  ],
  "scene": 0,
  "scenes": [
    {
      "nodes": [
        0
      ]
    }
  ],
  "textures": [
    {
      "name": "13003_Auriga_Butterflyfish_diff",
      "sampler": 0,
      "source": 0
    }
  ]
}
