{
  "accessors": [
    {
      "name": "12988_Electric_Yellow_Cichlid_1_0_positions",
      "componentType": 5126,
      "count": 39862,
      "min": [
        -2.264699935913086,
        -0.3003000020980835,
        -0.008200000040233135
      ],
      "max": [
        2.2553999423980713,
        0.3001999855041504,
        2.2214999198913574
      ],
      "type": "VEC3",
      "bufferView": 0,
      "byteOffset": 0
    },
    {
      "name": "12988_Electric_Yellow_Cichlid_1_0_normals",
      "componentType": 5126,
      "count": 39862,
      "min": [
        -0.9999977946281433,
        -1,
        -0.9999998211860657
      ],
      "max": [
        0.999987006187439,
        0.9999999403953552,
        0.9999991655349731
      ],
      "type": "VEC3",
      "bufferView": 1,
      "byteOffset": 0
    },
    {
      "name": "12988_Electric_Yellow_Cichlid_1_0_texcoords",
      "componentType": 5126,
      "count": 39862,
      "min": [
        0.003599999938160181,
        0.006099999882280827
      ],
      "max": [
        0.9944000244140625,
        1
      ],
      "type": "VEC2",
      "bufferView": 2,
      "byteOffset": 0
    },
    {
      "name": "12988_Electric_Yellow_Cichlid_1_0_indices",
      "componentType": 5123,
      "count": 228288,
      "min": [
        0
      ],
      "max": [
        39861
      ],
      "type": "SCALAR",
      "bufferView": 3,
      "byteOffset": 0
    }
  ],
  "asset": {
    "generator": "obj2gltf",
    "version": "2.0"
  },
  "buffers": [
    {
      "name": "12988_Electric_Yellow_cichlid_v1_l3",
      "byteLength": 2369188,
      "uri": "data:application/octet-stream;base64,"
    }
  ],
  "bufferViews": [
    {
      "name": "bufferView_0",
      "buffer": 0,
      "byteLength": 478344,
      "byteOffset": 0,
      "byteStride": 12,
      "target": 34962
    },
    {
      "name": "bufferView_1",
      "buffer": 0,
      "byteLength": 478344,
      "byteOffset": 478344,
      "byteStride": 12,
      "target": 34962
    },
    {
      "name": "bufferView_2",
      "buffer": 0,
      "byteLength": 318896,
      "byteOffset": 956688,
      "byteStride": 8,
      "target": 34962
    },
    {
      "name": "bufferView_3",
      "buffer": 0,
      "byteLength": 456576,
      "byteOffset": 1275584,
      "target": 34963
    },
    {
      "buffer": 0,
      "byteOffset": 1732160,
      "byteLength": 637028
    }
  ],
  "images": [
    {
      "name": "12988_Electric_Yellow_Cichlid_diff",
      "mimeType": "image/jpeg",
      "bufferView": 4
    }
  ],
  "materials": [
    {
      "name": "12988_Electric_Yellow_Cichlid",
      "pbrMetallicRoughness": {
        "baseColorTexture": {
          "index": 0
        },
        "baseColorFactor": [
          1,
          1,
          1,
          1
        ],
        "metallicFactor": 0,
        "roughnessFactor": 0.97
      },
      "emissiveFactor": [
        0,
        0,
        0
      ],
      "alphaMode": "OPAQUE",
      "doubleSided": false
    }
  ],
  "meshes": [
    {
      "name": "12988_Electric_Yellow_Cichlid_1",
      "primitives": [
        {
          "attributes": {
            "POSITION": 0,
            "NORMAL": 1,
            "TEXCOORD_0": 2
          },
          "indices": 3,
          "material": 0,
          "mode": 4
        }
      ]
    }
  ],
  "nodes": [
    {
      "name": "12988_Electric_Yellow_Cichlid",
      "mesh": 0
    }
  ],
  "samplers": [
    {
      "magFilter": 9729,
      "minFilter": 9986,
      "wrapS": 10497,
      "wrapT": 10497
    }
  ],
  "scene": 0,
  "scenes": [
    {
      "nodes": [
        0
      ]
    }
  ],
  "textures": [
    {
      "name": "12988_Electric_Yellow_Cichlid_diff",
      "sampler": 0,
      "source": 0
    }
  ]
}
